<svg xmlns="http://www.w3.org/2000/svg" viewBox="0 0 1200 900" preserveAspectRatio="xMidYMid meet" role="img"><title>Ребёнок радостно смотрит в небо</title><defs><linearGradient id="sky3" x1="0" y1="0" x2="0" y2="1">
    <stop offset="0" stop-color="#FCE39A"/><stop offset="1" stop-color="#F2C94C"/>
  </linearGradient></defs>
  <rect width="1200" height="900" fill="url(#sky3)"/><defs><radialGradient id="glow4"><stop offset="0" stop-color="#FCE39A"/><stop offset="1" stop-color="#FCE39A" stop-opacity="0"/></radialGradient></defs>
  <circle cx="600" cy="200" r="260" fill="url(#glow4)"/>
  <path d="M0,680 Q300,580 600,630 T1200,610 V900 H0 Z" fill="#9FCF6E"/>
  <path d="M0,760 Q350,660 700,730 T1200,700 V900 H0 Z" fill="#5E9E5A"/><g transform="translate(300,780) scale(1)">
    <circle cx="0" cy="-10" r="7" fill="#F2C94C"/><circle cx="9" cy="-3" r="7" fill="#F2C94C"/>
    <circle cx="6" cy="8" r="7" fill="#F2C94C"/><circle cx="-6" cy="8" r="7" fill="#F2C94C"/>
    <circle cx="-9" cy="-3" r="7" fill="#F2C94C"/><circle cx="0" cy="0" r="6" fill="#F2C94C"/>
    <rect x="-2" y="12" width="4" height="20" fill="#5E9E5A"/></g><g transform="translate(900,790) scale(1)">
    <circle cx="0" cy="-10" r="7" fill="#EB8A73"/><circle cx="9" cy="-3" r="7" fill="#EB8A73"/>
    <circle cx="6" cy="8" r="7" fill="#EB8A73"/><circle cx="-6" cy="8" r="7" fill="#EB8A73"/>
    <circle cx="-9" cy="-3" r="7" fill="#EB8A73"/><circle cx="0" cy="0" r="6" fill="#F2C94C"/>
    <rect x="-2" y="12" width="4" height="20" fill="#5E9E5A"/></g><g transform="translate(600,780) scale(1.6)">
    <path d="M-30,-60 Q0,-78 30,-60 L26,20 Q0,32 -26,20 Z" fill="#F2C94C"/>
       <rect x="-24" y="16" width="18" height="46" rx="8" fill="#3D5A80"/>
       <rect x="6" y="16" width="18" height="46" rx="8" fill="#3D5A80"/>
    <path d="M-24,-58 L-52,-108" stroke="#F1C9A5" stroke-width="16" stroke-linecap="round"/>
       <path d="M24,-58 L52,-108" stroke="#F1C9A5" stroke-width="16" stroke-linecap="round"/>
    <circle cx="0" cy="-88" r="26" fill="#F1C9A5"/>
    <path d="M-26,-96 Q0,-124 26,-96 Q26,-108 0,-112 Q-26,-108 -26,-96 Z" fill="#A0653A"/></g></svg>