<svg xmlns="http://www.w3.org/2000/svg" viewBox="0 0 1200 900" preserveAspectRatio="xMidYMid meet" role="img"><title>Разнообразие сотворённой природы</title><defs><linearGradient id="sky5" x1="0" y1="0" x2="0" y2="1">
    <stop offset="0" stop-color="#BFE3F0"/><stop offset="1" stop-color="#8FCFE6"/>
  </linearGradient></defs>
  <rect width="1200" height="900" fill="url(#sky5)"/><defs><radialGradient id="glow6"><stop offset="0" stop-color="#FCE39A"/><stop offset="1" stop-color="#FCE39A" stop-opacity="0"/></radialGradient></defs>
  <circle cx="600" cy="200" r="260" fill="url(#glow6)"/>
  <path d="M0,620 Q300,520 600,570 T1200,550 V900 H0 Z" fill="#9FCF6E"/>
  <path d="M0,700 Q350,600 700,670 T1200,640 V900 H0 Z" fill="#5E9E5A"/><g transform="translate(220,700) scale(1.1)">
    <rect x="-10" y="-10" width="20" height="90" rx="8" fill="#8B5A2B"/>
    <circle cx="0" cy="-70" r="70" fill="#5E9E5A"/>
    <circle cx="-40" cy="-40" r="45" fill="#9FCF6E"/>
    <circle cx="45" cy="-45" r="42" fill="#9FCF6E"/></g><g transform="translate(980,690) scale(1)">
    <rect x="-10" y="-10" width="20" height="90" rx="8" fill="#8B5A2B"/>
    <circle cx="0" cy="-70" r="70" fill="#5E9E5A"/>
    <circle cx="-40" cy="-40" r="45" fill="#9FCF6E"/>
    <circle cx="45" cy="-45" r="42" fill="#9FCF6E"/></g><g transform="translate(500,220) scale(1.4)">
    <path d="M-16,0 Q-8,-10 0,0 Q8,-10 16,0" fill="none" stroke="#8B5A2B" stroke-width="4" stroke-linecap="round"/></g><g transform="translate(560,260) scale(1.2)">
    <path d="M-16,0 Q-8,-10 0,0 Q8,-10 16,0" fill="none" stroke="#8B5A2B" stroke-width="4" stroke-linecap="round"/></g><g transform="translate(760,780) scale(1.1)">
    <ellipse cx="0" cy="0" rx="46" ry="30" fill="#F5FBFE"/>
    <circle cx="-40" cy="-6" r="16" fill="#D9A878"/>
    <rect x="-30" y="20" width="10" height="16" fill="#D9A878"/>
    <rect x="20" y="20" width="10" height="16" fill="#D9A878"/></g></svg>