<svg xmlns="http://www.w3.org/2000/svg" viewBox="0 0 1200 900" preserveAspectRatio="xMidYMid meet" role="img"><title>Панорама творения в тёплом свете</title><defs><linearGradient id="sky7" x1="0" y1="0" x2="0" y2="1">
    <stop offset="0" stop-color="#BFE3F0"/><stop offset="1" stop-color="#8FCFE6"/>
  </linearGradient></defs>
  <rect width="1200" height="900" fill="url(#sky7)"/><defs><radialGradient id="glow8"><stop offset="0" stop-color="#FCE39A"/><stop offset="1" stop-color="#FCE39A" stop-opacity="0"/></radialGradient></defs>
  <circle cx="600" cy="200" r="260" fill="url(#glow8)"/>
  <path d="M0,640 Q300,540 600,590 T1200,570 V900 H0 Z" fill="#9FCF6E"/>
  <path d="M0,720 Q350,620 700,690 T1200,660 V900 H0 Z" fill="#5E9E5A"/><g transform="translate(180,720) scale(1.2)">
    <rect x="-10" y="-10" width="20" height="90" rx="8" fill="#8B5A2B"/>
    <circle cx="0" cy="-70" r="70" fill="#5E9E5A"/>
    <circle cx="-40" cy="-40" r="45" fill="#9FCF6E"/>
    <circle cx="45" cy="-45" r="42" fill="#9FCF6E"/></g><g transform="translate(1020,700) scale(1)">
    <rect x="-10" y="-10" width="20" height="90" rx="8" fill="#8B5A2B"/>
    <circle cx="0" cy="-70" r="70" fill="#5E9E5A"/>
    <circle cx="-40" cy="-40" r="45" fill="#9FCF6E"/>
    <circle cx="45" cy="-45" r="42" fill="#9FCF6E"/></g><g transform="translate(450,200) scale(1.3)">
    <path d="M-16,0 Q-8,-10 0,0 Q8,-10 16,0" fill="none" stroke="#8B5A2B" stroke-width="4" stroke-linecap="round"/></g><g transform="translate(700,240) scale(1.1)">
    <path d="M-16,0 Q-8,-10 0,0 Q8,-10 16,0" fill="none" stroke="#8B5A2B" stroke-width="4" stroke-linecap="round"/></g></svg>