<svg xmlns="http://www.w3.org/2000/svg" viewBox="0 0 1200 900" preserveAspectRatio="xMidYMid meet" role="img"><title>Свет сквозь облака</title><defs><linearGradient id="sky13" x1="0" y1="0" x2="0" y2="1">
    <stop offset="0" stop-color="#FCE39A"/><stop offset="1" stop-color="#F2C94C"/>
  </linearGradient></defs>
  <rect width="1200" height="900" fill="url(#sky13)"/><defs><radialGradient id="glow14"><stop offset="0" stop-color="#FCE39A"/><stop offset="1" stop-color="#FCE39A" stop-opacity="0"/></radialGradient></defs>
  <circle cx="600" cy="380" r="320" fill="url(#glow14)"/><g transform="translate(300,260) scale(1.3)">
    <ellipse cx="0" cy="0" rx="60" ry="26" fill="#FFFFFF" opacity="0.9"/>
    <ellipse cx="-35" cy="6" rx="34" ry="20" fill="#FFFFFF" opacity="0.9"/>
    <ellipse cx="38" cy="8" rx="30" ry="18" fill="#FFFFFF" opacity="0.9"/></g><g transform="translate(900,300) scale(1.1)">
    <ellipse cx="0" cy="0" rx="60" ry="26" fill="#FFFFFF" opacity="0.9"/>
    <ellipse cx="-35" cy="6" rx="34" ry="20" fill="#FFFFFF" opacity="0.9"/>
    <ellipse cx="38" cy="8" rx="30" ry="18" fill="#FFFFFF" opacity="0.9"/></g><g transform="translate(600,200) scale(1.4)">
    <ellipse cx="0" cy="0" rx="60" ry="26" fill="#FFFFFF" opacity="0.9"/>
    <ellipse cx="-35" cy="6" rx="34" ry="20" fill="#FFFFFF" opacity="0.9"/>
    <ellipse cx="38" cy="8" rx="30" ry="18" fill="#FFFFFF" opacity="0.9"/></g>
  <path d="M0,760 Q300,660 600,710 T1200,690 V900 H0 Z" fill="#9FCF6E"/>
  <path d="M0,840 Q350,740 700,810 T1200,780 V900 H0 Z" fill="#5E9E5A"/></svg>