<svg xmlns="http://www.w3.org/2000/svg" viewBox="0 0 1200 900" preserveAspectRatio="xMidYMid meet" role="img"><title>Раскрытая книга под лучом света</title><defs><linearGradient id="sky22" x1="0" y1="0" x2="0" y2="1">
    <stop offset="0" stop-color="#BFE3F0"/><stop offset="1" stop-color="#8FCFE6"/>
  </linearGradient></defs>
  <rect width="1200" height="900" fill="url(#sky22)"/><defs><radialGradient id="glow23"><stop offset="0" stop-color="#FCE39A"/><stop offset="1" stop-color="#FCE39A" stop-opacity="0"/></radialGradient></defs>
  <circle cx="600" cy="300" r="280" fill="url(#glow23)"/>
  <path d="M0,760 Q300,660 600,710 T1200,690 V900 H0 Z" fill="#9FCF6E"/>
  <path d="M0,840 Q350,740 700,810 T1200,780 V900 H0 Z" fill="#5E9E5A"/><g transform="translate(600,700) scale(1.8)">
    <path d="M-70,-10 Q-35,-28 0,-10 L0,40 Q-35,24 -70,40 Z" fill="#F5FBFE" stroke="#E9CE8E" stroke-width="4"/>
    <path d="M70,-10 Q35,-28 0,-10 L0,40 Q35,24 70,40 Z" fill="#F5FBFE" stroke="#E9CE8E" stroke-width="4"/>
    <path d="M0,-10 L0,40" stroke="#E9CE8E" stroke-width="3"/></g></svg>