<svg xmlns="http://www.w3.org/2000/svg" viewBox="0 0 1200 900" preserveAspectRatio="xMidYMid meet" role="img"><title>Спящий Адам и Ева поодаль</title><defs><linearGradient id="sky47" x1="0" y1="0" x2="0" y2="1">
    <stop offset="0" stop-color="#BFE3F0"/><stop offset="1" stop-color="#8FCFE6"/>
  </linearGradient></defs>
  <rect width="1200" height="900" fill="url(#sky47)"/><defs><radialGradient id="glow48"><stop offset="0" stop-color="#FCE39A"/><stop offset="1" stop-color="#FCE39A" stop-opacity="0"/></radialGradient></defs>
  <circle cx="600" cy="200" r="260" fill="url(#glow48)"/>
  <path d="M0,680 Q300,580 600,630 T1200,610 V900 H0 Z" fill="#9FCF6E"/>
  <path d="M0,760 Q350,660 700,730 T1200,700 V900 H0 Z" fill="#5E9E5A"/><g transform="translate(600,660) scale(1.3)">
    <rect x="-10" y="-10" width="20" height="90" rx="8" fill="#8B5A2B"/>
    <circle cx="0" cy="-70" r="70" fill="#5E9E5A"/>
    <circle cx="-40" cy="-40" r="45" fill="#9FCF6E"/>
    <circle cx="45" cy="-45" r="42" fill="#9FCF6E"/></g><ellipse cx="420" cy="800" rx="90" ry="26" fill="#A9C5A0"/><g transform="translate(820,780) scale(1.3)">
    <path d="M-36,-96 Q0,-114 36,-96 L30,70 Q0,86 -30,70 Z" fill="#7FB4B0"/>
    <path d="M-28,-92 L-42,-24" stroke="#F1C9A5" stroke-width="15" stroke-linecap="round"/>
    <path d="M28,-92 L42,-24" stroke="#F1C9A5" stroke-width="15" stroke-linecap="round"/>
    <circle cx="0" cy="-124" r="25" fill="#F1C9A5"/>
    <path d="M-30,-136 Q0,-160 30,-136 Q34,-110 24,-96 L20,-116 Q0,-128 -20,-116 L-24,-96 Q-34,-110 -30,-136 Z" fill="#F5FBFE"/></g></svg>