<svg xmlns="http://www.w3.org/2000/svg" viewBox="0 0 1200 900" preserveAspectRatio="xMidYMid meet" role="img"><title>Спящая мужская фигура под деревом в саду, женский силуэт стоит неподалёку.</title><defs><linearGradient id="q27sky1" x1="0" y1="0" x2="0" y2="1"><stop offset="0" stop-color="#BFE3F0"/><stop offset="1" stop-color="#FCE39A"/></linearGradient></defs><rect width="1200" height="900" fill="url(#q27sky1)"/><path d="M0,680 Q300,570 600,641.5 T1200,630.5 V900 H0 Z" fill="#9FCF6E"/><path d="M0,780 Q300,690 600,748.5 T1200,739.5 V900 H0 Z" fill="#5E9E5A"/><path d="M0,850 Q300,810 600,836 T1200,832 V900 H0 Z" fill="#A9C5A0"/><g transform="translate(118,175) scale(0.85)" opacity="0.95"><ellipse cx="-30" cy="0" rx="34" ry="20" fill="#FFFFFF"/><ellipse cx="10" cy="-8" rx="42" ry="26" fill="#FFFFFF"/><ellipse cx="46" cy="2" rx="30" ry="18" fill="#FFFFFF"/></g><g transform="translate(842,199) scale(0.9500000000000001)" opacity="0.95"><ellipse cx="-30" cy="0" rx="34" ry="20" fill="#FFFFFF"/><ellipse cx="10" cy="-8" rx="42" ry="26" fill="#FFFFFF"/><ellipse cx="46" cy="2" rx="30" ry="18" fill="#FFFFFF"/></g><g transform="translate(126,890) scale(1.1)">
    <path d="M-10,4 Q-14,-16 -6,-26" stroke="#5E9E5A" stroke-width="4" fill="none" stroke-linecap="round"/>
    <path d="M0,4 Q0,-22 4,-30" stroke="#5E9E5A" stroke-width="4" fill="none" stroke-linecap="round"/>
    <path d="M10,4 Q14,-14 8,-24" stroke="#5E9E5A" stroke-width="4" fill="none" stroke-linecap="round"/>
  </g><g transform="translate(1093,888) scale(0.9)">
    <path d="M-10,4 Q-14,-16 -6,-26" stroke="#5E9E5A" stroke-width="4" fill="none" stroke-linecap="round"/>
    <path d="M0,4 Q0,-22 4,-30" stroke="#5E9E5A" stroke-width="4" fill="none" stroke-linecap="round"/>
    <path d="M10,4 Q14,-14 8,-24" stroke="#5E9E5A" stroke-width="4" fill="none" stroke-linecap="round"/>
  </g><g transform="translate(600,760) scale(1.6)">
    <ellipse cx="0" cy="4" rx="40" ry="12.8" fill="#5E9E5A" opacity="0.22"/>
    <rect x="-8" y="-60" width="16" height="60" rx="6" fill="#8B5A2B"/>
    <circle cx="0" cy="-92" r="46" fill="#5E9E5A"/>
    <circle cx="-28" cy="-72" r="30" fill="#5E9E5A"/>
    <circle cx="28" cy="-72" r="30" fill="#5E9E5A"/>
  </g><g transform="translate(560,830)"><ellipse cx="0" cy="0" rx="70" ry="20" fill="#3D5A80"/><circle cx="-40" cy="-10" r="18" fill="#D9A878"/></g><g transform="translate(880,800) scale(1.1)">
    <ellipse cx="0" cy="4" rx="40" ry="12.8" fill="#5E9E5A" opacity="0.22"/>
    <path d="M-34,10 Q-38,-70 0,-92 Q38,-70 34,10 Z" fill="#EB8A73"/>
    <rect x="-34" y="-20" width="68" height="10" fill="#E9CE8E"/>
    <path d="M-28,-84 L-40,-30" stroke="#D9A878" stroke-width="13" stroke-linecap="round"/>
    <path d="M28,-84 L40,-30" stroke="#D9A878" stroke-width="13" stroke-linecap="round"/>
    <circle cx="0" cy="-118" r="24" fill="#D9A878"/><path d="M-30,-124 Q0,-158 30,-124 L26,-70 Q0,-84 -26,-70 Z" fill="#EB8A73"/>
  </g></svg>