<svg xmlns="http://www.w3.org/2000/svg" viewBox="0 0 1200 900" preserveAspectRatio="xMidYMid meet" role="img"><title>Адам и Ева с мягким сиянием</title><defs><linearGradient id="sky49" x1="0" y1="0" x2="0" y2="1">
    <stop offset="0" stop-color="#BFE3F0"/><stop offset="1" stop-color="#8FCFE6"/>
  </linearGradient></defs>
  <rect width="1200" height="900" fill="url(#sky49)"/><defs><radialGradient id="glow50"><stop offset="0" stop-color="#FCE39A"/><stop offset="1" stop-color="#FCE39A" stop-opacity="0"/></radialGradient></defs>
  <circle cx="600" cy="200" r="260" fill="url(#glow50)"/>
  <path d="M0,680 Q300,580 600,630 T1200,610 V900 H0 Z" fill="#9FCF6E"/>
  <path d="M0,760 Q350,660 700,730 T1200,700 V900 H0 Z" fill="#5E9E5A"/><g transform="translate(480,780) scale(1.3)">
    <path d="M-34,-100 Q0,-118 34,-100 L28,60 Q0,74 -28,60 Z" fill="#A9C5A0"/>
    <rect x="-40" y="-30" width="14" height="10" fill="#A0653A"/>
    <path d="M-30,-96 L-46,-20" stroke="#D9A878" stroke-width="16" stroke-linecap="round"/>
    <path d="M30,-96 L46,-20" stroke="#D9A878" stroke-width="16" stroke-linecap="round"/>
    <circle cx="0" cy="-128" r="26" fill="#D9A878"/></g><g transform="translate(700,780) scale(1.3)">
    <path d="M-36,-96 Q0,-114 36,-96 L30,70 Q0,86 -30,70 Z" fill="#7FB4B0"/>
    <path d="M-28,-92 L-42,-24" stroke="#F1C9A5" stroke-width="15" stroke-linecap="round"/>
    <path d="M28,-92 L42,-24" stroke="#F1C9A5" stroke-width="15" stroke-linecap="round"/>
    <circle cx="0" cy="-124" r="25" fill="#F1C9A5"/>
    <path d="M-30,-136 Q0,-160 30,-136 Q34,-110 24,-96 L20,-116 Q0,-128 -20,-116 L-24,-96 Q-34,-110 -30,-136 Z" fill="#F5FBFE"/></g><circle cx="480" cy="700" r="14" fill="#FCE39A"/><circle cx="700" cy="700" r="14" fill="#FCE39A"/></svg>