<svg xmlns="http://www.w3.org/2000/svg" viewBox="0 0 1200 900" preserveAspectRatio="xMidYMid meet" role="img"><title>Стена с воротами перед садом</title><defs><linearGradient id="sky68" x1="0" y1="0" x2="0" y2="1">
    <stop offset="0" stop-color="#BFE3F0"/><stop offset="1" stop-color="#8FCFE6"/>
  </linearGradient></defs>
  <rect width="1200" height="900" fill="url(#sky68)"/>
  <path d="M0,700 Q300,600 600,650 T1200,630 V900 H0 Z" fill="#9FCF6E"/>
  <path d="M0,780 Q350,680 700,750 T1200,720 V900 H0 Z" fill="#5E9E5A"/><g transform="translate(600,780) scale(1)">
    <rect x="-70" y="-150" width="20" height="150" fill="#8B5A2B"/>
    <rect x="50" y="-150" width="20" height="150" fill="#8B5A2B"/>
    <rect x="-70" y="-160" width="140" height="20" rx="8" fill="#8B5A2B"/>
    <rect x="-56" y="-120" width="52" height="120" rx="6" fill="#A0653A"/>
       <rect x="4" y="-120" width="52" height="120" rx="6" fill="#A0653A"/></g><g transform="translate(950,800) scale(1)">
    <path d="M-30,-60 Q0,-78 30,-60 L26,20 Q0,32 -26,20 Z" fill="#F2C94C"/>
       <rect x="-24" y="16" width="18" height="46" rx="8" fill="#3D5A80"/>
       <rect x="6" y="16" width="18" height="46" rx="8" fill="#3D5A80"/>
    <path d="M-26,-56 L-34,-16" stroke="#F1C9A5" stroke-width="16" stroke-linecap="round"/>
         <path d="M26,-56 L34,-16" stroke="#F1C9A5" stroke-width="16" stroke-linecap="round"/>
    <circle cx="0" cy="-88" r="26" fill="#F1C9A5"/>
    <path d="M-26,-96 Q0,-124 26,-96 Q26,-108 0,-112 Q-26,-108 -26,-96 Z" fill="#A0653A"/></g></svg>