<svg xmlns="http://www.w3.org/2000/svg" viewBox="0 0 1200 900" preserveAspectRatio="xMidYMid meet" role="img"><title>Библия и звезда — обещанный Спаситель</title><defs><linearGradient id="sky70" x1="0" y1="0" x2="0" y2="1">
    <stop offset="0" stop-color="#FCE39A"/><stop offset="1" stop-color="#F2C94C"/>
  </linearGradient></defs>
  <rect width="1200" height="900" fill="url(#sky70)"/><circle cx="140" cy="90" r="4" fill="#FFFFFF" opacity="0.85"/><circle cx="260" cy="60" r="4" fill="#FFFFFF" opacity="0.85"/><circle cx="420" cy="120" r="4" fill="#FFFFFF" opacity="0.85"/><circle cx="600" cy="70" r="4" fill="#FFFFFF" opacity="0.85"/><circle cx="780" cy="110" r="4" fill="#FFFFFF" opacity="0.85"/><circle cx="940" cy="60" r="4" fill="#FFFFFF" opacity="0.85"/><circle cx="1080" cy="100" r="4" fill="#FFFFFF" opacity="0.85"/><circle cx="200" cy="180" r="4" fill="#FFFFFF" opacity="0.85"/><circle cx="980" cy="200" r="4" fill="#FFFFFF" opacity="0.85"/><circle cx="520" cy="160" r="4" fill="#FFFFFF" opacity="0.85"/>
  <path d="M0,760 Q300,660 600,710 T1200,690 V900 H0 Z" fill="#9FCF6E"/>
  <path d="M0,840 Q350,740 700,810 T1200,780 V900 H0 Z" fill="#5E9E5A"/><g transform="translate(600,260)">
    <path d="M0,-36.4 L9.1,-9.1 L36.4,0 L9.1,9.1 L0,36.4 L-9.1,9.1 L-36.4,0 L-9.1,-9.1 Z" fill="#F2C94C"/></g><g transform="translate(600,720) scale(1.3)">
    <path d="M-70,-10 Q-35,-28 0,-10 L0,40 Q-35,24 -70,40 Z" fill="#F5FBFE" stroke="#E9CE8E" stroke-width="4"/>
    <path d="M70,-10 Q35,-28 0,-10 L0,40 Q35,24 70,40 Z" fill="#F5FBFE" stroke="#E9CE8E" stroke-width="4"/>
    <path d="M0,-10 L0,40" stroke="#E9CE8E" stroke-width="3"/></g></svg>