<svg xmlns="http://www.w3.org/2000/svg" viewBox="0 0 1200 900" preserveAspectRatio="xMidYMid meet" role="img"><title>Мать у яслей, вид со спины</title><defs><linearGradient id="sky72" x1="0" y1="0" x2="0" y2="1">
    <stop offset="0" stop-color="#BFE3F0"/><stop offset="1" stop-color="#8FCFE6"/>
  </linearGradient></defs>
  <rect width="1200" height="900" fill="url(#sky72)"/><circle cx="140" cy="90" r="4" fill="#FFFFFF" opacity="0.85"/><circle cx="260" cy="60" r="4" fill="#FFFFFF" opacity="0.85"/><circle cx="420" cy="120" r="4" fill="#FFFFFF" opacity="0.85"/><circle cx="600" cy="70" r="4" fill="#FFFFFF" opacity="0.85"/><circle cx="780" cy="110" r="4" fill="#FFFFFF" opacity="0.85"/><circle cx="940" cy="60" r="4" fill="#FFFFFF" opacity="0.85"/><circle cx="1080" cy="100" r="4" fill="#FFFFFF" opacity="0.85"/><circle cx="200" cy="180" r="4" fill="#FFFFFF" opacity="0.85"/><circle cx="980" cy="200" r="4" fill="#FFFFFF" opacity="0.85"/><circle cx="520" cy="160" r="4" fill="#FFFFFF" opacity="0.85"/>
  <path d="M0,760 Q300,660 600,710 T1200,690 V900 H0 Z" fill="#9FCF6E"/>
  <path d="M0,840 Q350,740 700,810 T1200,780 V900 H0 Z" fill="#5E9E5A"/><g transform="translate(700,780) scale(1.2)">
    <path d="M-70,20 L-50,-20 L50,-20 L70,20 Z" fill="none" stroke="#8B5A2B" stroke-width="10" stroke-linejoin="round"/>
    <path d="M-60,10 L60,10" stroke="#F2C94C" stroke-width="8" stroke-linecap="round" opacity="0.85"/>
    <ellipse cx="0" cy="0" rx="46" ry="16" fill="#F5FBFE"/></g><g transform="translate(480,790) scale(1.3)">
    <path d="M-36,-96 Q0,-114 36,-96 L30,70 Q0,86 -30,70 Z" fill="#7FB4B0"/>
    <path d="M-28,-92 L-42,-24" stroke="#F1C9A5" stroke-width="15" stroke-linecap="round"/>
    <path d="M28,-92 L42,-24" stroke="#F1C9A5" stroke-width="15" stroke-linecap="round"/>
    <circle cx="0" cy="-124" r="25" fill="#F1C9A5"/>
    <path d="M-30,-136 Q0,-160 30,-136 Q34,-110 24,-96 L20,-116 Q0,-128 -20,-116 L-24,-96 Q-34,-110 -30,-136 Z" fill="#F5FBFE"/></g></svg>