<svg xmlns="http://www.w3.org/2000/svg" viewBox="0 0 1200 900" preserveAspectRatio="xMidYMid meet" role="img"><title>Чистый белый плат в яслях</title><defs><linearGradient id="sky74" x1="0" y1="0" x2="0" y2="1">
    <stop offset="0" stop-color="#BFE3F0"/><stop offset="1" stop-color="#8FCFE6"/>
  </linearGradient></defs>
  <rect width="1200" height="900" fill="url(#sky74)"/><circle cx="140" cy="90" r="4" fill="#FFFFFF" opacity="0.85"/><circle cx="260" cy="60" r="4" fill="#FFFFFF" opacity="0.85"/><circle cx="420" cy="120" r="4" fill="#FFFFFF" opacity="0.85"/><circle cx="600" cy="70" r="4" fill="#FFFFFF" opacity="0.85"/><circle cx="780" cy="110" r="4" fill="#FFFFFF" opacity="0.85"/><circle cx="940" cy="60" r="4" fill="#FFFFFF" opacity="0.85"/><circle cx="1080" cy="100" r="4" fill="#FFFFFF" opacity="0.85"/><circle cx="200" cy="180" r="4" fill="#FFFFFF" opacity="0.85"/><circle cx="980" cy="200" r="4" fill="#FFFFFF" opacity="0.85"/><circle cx="520" cy="160" r="4" fill="#FFFFFF" opacity="0.85"/>
  <path d="M0,780 Q300,680 600,730 T1200,710 V900 H0 Z" fill="#9FCF6E"/>
  <path d="M0,860 Q350,760 700,830 T1200,800 V900 H0 Z" fill="#5E9E5A"/><g transform="translate(600,780) scale(1.6)">
    <path d="M-70,20 L-50,-20 L50,-20 L70,20 Z" fill="none" stroke="#8B5A2B" stroke-width="10" stroke-linejoin="round"/>
    <path d="M-60,10 L60,10" stroke="#F2C94C" stroke-width="8" stroke-linecap="round" opacity="0.85"/>
    <ellipse cx="0" cy="0" rx="46" ry="16" fill="#F5FBFE"/></g><g transform="translate(600,740) scale(1.2)">
    <path d="M-50,10 Q0,-14 50,10 L46,30 Q0,10 -46,30 Z" fill="#F5FBFE" stroke="#E9CE8E" stroke-width="3"/></g></svg>