<svg xmlns="http://www.w3.org/2000/svg" viewBox="0 0 1200 900" preserveAspectRatio="xMidYMid meet" role="img"><title>Крест на холме, у подножия — люди</title><defs><linearGradient id="sky79" x1="0" y1="0" x2="0" y2="1">
    <stop offset="0" stop-color="#FCE39A"/><stop offset="1" stop-color="#F2C94C"/>
  </linearGradient></defs>
  <rect width="1200" height="900" fill="url(#sky79)"/>
  <path d="M0,760 Q300,660 600,710 T1200,690 V900 H0 Z" fill="#E9CE8E"/>
  <path d="M0,840 Q350,740 700,810 T1200,780 V900 H0 Z" fill="#A0653A"/><g transform="translate(600,640) scale(1.8)">
    <rect x="-12" y="-90" width="24" height="180" rx="6" fill="#A0653A"/>
    <rect x="-46" y="-40" width="92" height="24" rx="6" fill="#A0653A"/></g><g transform="translate(420,800) scale(0.8)">
    <path d="M-30,-60 Q0,-78 30,-60 L26,20 Q0,32 -26,20 Z" fill="#F2C94C"/>
       <rect x="-24" y="16" width="18" height="46" rx="8" fill="#3D5A80"/>
       <rect x="6" y="16" width="18" height="46" rx="8" fill="#3D5A80"/>
    <path d="M-26,-56 L-34,-16" stroke="#F1C9A5" stroke-width="16" stroke-linecap="round"/>
         <path d="M26,-56 L34,-16" stroke="#F1C9A5" stroke-width="16" stroke-linecap="round"/>
    <circle cx="0" cy="-88" r="26" fill="#F1C9A5"/>
    <path d="M-26,-96 Q0,-124 26,-96 Q26,-108 0,-112 Q-26,-108 -26,-96 Z" fill="#A0653A"/></g><g transform="translate(520,810) scale(0.7)">
    <path d="M-34,-56 Q0,-74 34,-56 L44,40 Q0,54 -44,40 Z" fill="#EB8A73"/>
    <path d="M-28,-54 L-40,-10" stroke="#F1C9A5" stroke-width="15" stroke-linecap="round"/>
    <path d="M28,-54 L40,-10" stroke="#F1C9A5" stroke-width="15" stroke-linecap="round"/>
    <circle cx="0" cy="-86" r="25" fill="#F1C9A5"/>
    <path d="M-25,-92 Q0,-118 25,-92 Q27,-70 20,-58 Q25,-90 0,-96 Q-25,-90 -20,-58 Q-27,-70 -25,-92 Z" fill="#8B5A2B"/></g><g transform="translate(700,800) scale(0.8)">
    <path d="M-34,-100 Q0,-118 34,-100 L28,60 Q0,74 -28,60 Z" fill="#A9C5A0"/>
    <rect x="-40" y="-30" width="14" height="10" fill="#A0653A"/>
    <path d="M-30,-96 L-46,-20" stroke="#D9A878" stroke-width="16" stroke-linecap="round"/>
    <path d="M30,-96 L46,-20" stroke="#D9A878" stroke-width="16" stroke-linecap="round"/>
    <circle cx="0" cy="-128" r="26" fill="#D9A878"/></g><g transform="translate(800,810) scale(0.75)">
    <path d="M-36,-96 Q0,-114 36,-96 L30,70 Q0,86 -30,70 Z" fill="#7FB4B0"/>
    <path d="M-28,-92 L-42,-24" stroke="#F1C9A5" stroke-width="15" stroke-linecap="round"/>
    <path d="M28,-92 L42,-24" stroke="#F1C9A5" stroke-width="15" stroke-linecap="round"/>
    <circle cx="0" cy="-124" r="25" fill="#F1C9A5"/>
    <path d="M-30,-136 Q0,-160 30,-136 Q34,-110 24,-96 L20,-116 Q0,-128 -20,-116 L-24,-96 Q-34,-110 -30,-136 Z" fill="#F5FBFE"/></g></svg>