<svg xmlns="http://www.w3.org/2000/svg" viewBox="0 0 1200 900" preserveAspectRatio="xMidYMid meet" role="img"><title>Крест на холме, у подножия — рассеянная толпа скромно одетых силуэтов людей.</title><defs><linearGradient id="q52sky1" x1="0" y1="0" x2="0" y2="1"><stop offset="0" stop-color="#F2C94C"/><stop offset="1" stop-color="#EB8A73"/></linearGradient></defs><rect width="1200" height="900" fill="url(#q52sky1)"/><path d="M0,700 Q300,610 600,668.5 T1200,659.5 V900 H0 Z" fill="#5E9E5A"/><path d="M0,800 Q300,730 600,775.5 T1200,768.5 V900 H0 Z" fill="#8B5A2B"/><g transform="translate(243,170) scale(0.97)" opacity="0.95"><ellipse cx="-30" cy="0" rx="34" ry="20" fill="#FFFFFF"/><ellipse cx="10" cy="-8" rx="42" ry="26" fill="#FFFFFF"/><ellipse cx="46" cy="2" rx="30" ry="18" fill="#FFFFFF"/></g><g transform="translate(767,174) scale(0.8)" opacity="0.95"><ellipse cx="-30" cy="0" rx="34" ry="20" fill="#FFFFFF"/><ellipse cx="10" cy="-8" rx="42" ry="26" fill="#FFFFFF"/><ellipse cx="46" cy="2" rx="30" ry="18" fill="#FFFFFF"/></g><g transform="translate(191,890) scale(0.9)">
    <path d="M-10,4 Q-14,-16 -6,-26" stroke="#5E9E5A" stroke-width="4" fill="none" stroke-linecap="round"/>
    <path d="M0,4 Q0,-22 4,-30" stroke="#5E9E5A" stroke-width="4" fill="none" stroke-linecap="round"/>
    <path d="M10,4 Q14,-14 8,-24" stroke="#5E9E5A" stroke-width="4" fill="none" stroke-linecap="round"/>
  </g><g transform="translate(1018,888) scale(1.05)">
    <path d="M-10,4 Q-14,-16 -6,-26" stroke="#5E9E5A" stroke-width="4" fill="none" stroke-linecap="round"/>
    <path d="M0,4 Q0,-22 4,-30" stroke="#5E9E5A" stroke-width="4" fill="none" stroke-linecap="round"/>
    <path d="M10,4 Q14,-14 8,-24" stroke="#5E9E5A" stroke-width="4" fill="none" stroke-linecap="round"/>
  </g><g transform="translate(600,740) scale(1.6)">
    <ellipse cx="0" cy="4" rx="26" ry="8.32" fill="#5E9E5A" opacity="0.22"/>
    <rect x="-9" y="-130" width="18" height="130" rx="4" fill="#A0653A"/>
    <rect x="-38" y="-96" width="76" height="18" rx="4" fill="#A0653A"/>
  </g><g transform="translate(360,850) scale(0.7)">
    <ellipse cx="0" cy="4" rx="40" ry="12.8" fill="#5E9E5A" opacity="0.22"/>
    <path d="M-34,10 Q-38,-70 0,-92 Q38,-70 34,10 Z" fill="#3D5A80"/>
    <rect x="-34" y="-20" width="68" height="10" fill="#E9CE8E"/>
    <path d="M-28,-84 L-40,-30" stroke="#D9A878" stroke-width="13" stroke-linecap="round"/>
    <path d="M28,-84 L40,-30" stroke="#D9A878" stroke-width="13" stroke-linecap="round"/>
    <circle cx="0" cy="-118" r="24" fill="#D9A878"/><path d="M-24,-124 Q0,-146 24,-124 Q24,-134 0,-136 Q-24,-134 -24,-124 Z" fill="#8B5A2B"/>
  </g><g transform="translate(460,860) scale(0.7)">
    <ellipse cx="0" cy="4" rx="40" ry="12.8" fill="#5E9E5A" opacity="0.22"/>
    <path d="M-34,10 Q-38,-70 0,-92 Q38,-70 34,10 Z" fill="#EB8A73"/>
    <rect x="-34" y="-20" width="68" height="10" fill="#E9CE8E"/>
    <path d="M-28,-84 L-40,-30" stroke="#D9A878" stroke-width="13" stroke-linecap="round"/>
    <path d="M28,-84 L40,-30" stroke="#D9A878" stroke-width="13" stroke-linecap="round"/>
    <circle cx="0" cy="-118" r="24" fill="#D9A878"/><path d="M-30,-124 Q0,-158 30,-124 L26,-70 Q0,-84 -26,-70 Z" fill="#EB8A73"/>
  </g><g transform="translate(820,850) scale(0.7)">
    <ellipse cx="0" cy="4" rx="40" ry="12.8" fill="#5E9E5A" opacity="0.22"/>
    <path d="M-34,10 Q-38,-70 0,-92 Q38,-70 34,10 Z" fill="#A9C5A0"/>
    <rect x="-34" y="-20" width="68" height="10" fill="#E9CE8E"/>
    <path d="M-28,-84 L-40,-30" stroke="#D9A878" stroke-width="13" stroke-linecap="round"/>
    <path d="M28,-84 L40,-30" stroke="#D9A878" stroke-width="13" stroke-linecap="round"/>
    <circle cx="0" cy="-118" r="24" fill="#D9A878"/><path d="M-24,-124 Q0,-146 24,-124 Q24,-134 0,-136 Q-24,-134 -24,-124 Z" fill="#8B5A2B"/>
  </g></svg>