<svg xmlns="http://www.w3.org/2000/svg" viewBox="0 0 1200 900" preserveAspectRatio="xMidYMid meet" role="img"><title>Ребёнок на пути к светлому кресту</title><defs><linearGradient id="sky80" x1="0" y1="0" x2="0" y2="1">
    <stop offset="0" stop-color="#FCE39A"/><stop offset="1" stop-color="#F2C94C"/>
  </linearGradient></defs>
  <rect width="1200" height="900" fill="url(#sky80)"/>
  <path d="M0,740 Q300,640 600,690 T1200,670 V900 H0 Z" fill="#9FCF6E"/>
  <path d="M0,820 Q350,720 700,790 T1200,760 V900 H0 Z" fill="#5E9E5A"/><path d="M100,900 L600,780 L900,500" fill="none" stroke="#E9CE8E" stroke-width="100" stroke-linecap="round" stroke-linejoin="round" opacity="0.9"/><g transform="translate(900,420) scale(1.2)">
    <rect x="-12" y="-90" width="24" height="180" rx="6" fill="#A0653A"/>
    <rect x="-46" y="-40" width="92" height="24" rx="6" fill="#A0653A"/></g><g transform="translate(300,830) scale(1.1)">
    <path d="M-28,-40 Q0,-20 28,-40 L24,10 Q0,20 -24,10 Z" fill="#F2C94C"/>
       <path d="M-24,10 L-30,30 L30,30 L24,10 Z" fill="#3D5A80"/>
    <path d="M-26,-56 L-34,-16" stroke="#F1C9A5" stroke-width="16" stroke-linecap="round"/>
         <path d="M26,-56 L34,-16" stroke="#F1C9A5" stroke-width="16" stroke-linecap="round"/>
    <circle cx="0" cy="-88" r="26" fill="#F1C9A5"/>
    <path d="M-26,-96 Q0,-124 26,-96 Q26,-108 0,-112 Q-26,-108 -26,-96 Z" fill="#A0653A"/></g></svg>