<svg xmlns="http://www.w3.org/2000/svg" viewBox="0 0 1200 900" preserveAspectRatio="xMidYMid meet" role="img"><title>Ребёнок молится под деревом на ветру</title><defs><linearGradient id="sky84" x1="0" y1="0" x2="0" y2="1">
    <stop offset="0" stop-color="#BFE3F0"/><stop offset="1" stop-color="#8FCFE6"/>
  </linearGradient></defs>
  <rect width="1200" height="900" fill="url(#sky84)"/><defs><radialGradient id="glow85"><stop offset="0" stop-color="#FCE39A"/><stop offset="1" stop-color="#FCE39A" stop-opacity="0"/></radialGradient></defs>
  <circle cx="600" cy="200" r="260" fill="url(#glow85)"/>
  <path d="M0,680 Q300,580 600,630 T1200,610 V900 H0 Z" fill="#9FCF6E"/>
  <path d="M0,760 Q350,660 700,730 T1200,700 V900 H0 Z" fill="#5E9E5A"/><g transform="translate(880,660) scale(1.3)">
    <rect x="-10" y="-10" width="20" height="90" rx="8" fill="#8B5A2B"/>
    <circle cx="0" cy="-70" r="70" fill="#5E9E5A"/>
    <circle cx="-40" cy="-40" r="45" fill="#9FCF6E"/>
    <circle cx="45" cy="-45" r="42" fill="#9FCF6E"/></g><g transform="translate(500,800) scale(1.4)">
    <path d="M-30,-60 Q0,-78 30,-60 L26,20 Q0,32 -26,20 Z" fill="#F2C94C"/>
       <rect x="-24" y="16" width="18" height="46" rx="8" fill="#3D5A80"/>
       <rect x="6" y="16" width="18" height="46" rx="8" fill="#3D5A80"/>
    <path d="M-14,-50 L0,-78 L14,-50" fill="none" stroke="#F1C9A5" stroke-width="16" stroke-linecap="round"/>
    <circle cx="0" cy="-88" r="26" fill="#F1C9A5"/>
    <path d="M-26,-96 Q0,-124 26,-96 Q26,-108 0,-112 Q-26,-108 -26,-96 Z" fill="#A0653A"/></g></svg>