<svg xmlns="http://www.w3.org/2000/svg" viewBox="0 0 1200 900" preserveAspectRatio="xMidYMid meet" role="img"><title>Библия, крест и корона — три служения</title><defs><linearGradient id="sky87" x1="0" y1="0" x2="0" y2="1">
    <stop offset="0" stop-color="#BFE3F0"/><stop offset="1" stop-color="#8FCFE6"/>
  </linearGradient></defs>
  <rect width="1200" height="900" fill="url(#sky87)"/><defs><radialGradient id="glow88"><stop offset="0" stop-color="#FCE39A"/><stop offset="1" stop-color="#FCE39A" stop-opacity="0"/></radialGradient></defs>
  <circle cx="600" cy="200" r="260" fill="url(#glow88)"/>
  <path d="M0,760 Q300,660 600,710 T1200,690 V900 H0 Z" fill="#9FCF6E"/>
  <path d="M0,840 Q350,740 700,810 T1200,780 V900 H0 Z" fill="#5E9E5A"/><g transform="translate(380,760) scale(1.1)">
    <path d="M-70,-10 Q-35,-28 0,-10 L0,40 Q-35,24 -70,40 Z" fill="#F5FBFE" stroke="#E9CE8E" stroke-width="4"/>
    <path d="M70,-10 Q35,-28 0,-10 L0,40 Q35,24 70,40 Z" fill="#F5FBFE" stroke="#E9CE8E" stroke-width="4"/>
    <path d="M0,-10 L0,40" stroke="#E9CE8E" stroke-width="3"/></g><g transform="translate(600,700) scale(1)">
    <rect x="-12" y="-90" width="24" height="180" rx="6" fill="#A0653A"/>
    <rect x="-46" y="-40" width="92" height="24" rx="6" fill="#A0653A"/></g><g transform="translate(860,760) scale(1)">
    <path d="M-50,10 L-50,-10 L-25,-40 L0,-10 L25,-40 L50,-10 L50,10 Z" fill="#F2C94C"/>
    <rect x="-50" y="10" width="100" height="18" rx="6" fill="#F2C94C"/>
    <circle cx="-25" cy="-40" r="8" fill="#EB8A73"/>
    <circle cx="25" cy="-40" r="8" fill="#EB8A73"/>
    <circle cx="0" cy="-46" r="9" fill="#EB8A73"/></g></svg>