<svg xmlns="http://www.w3.org/2000/svg" viewBox="0 0 1200 900" preserveAspectRatio="xMidYMid meet" role="img"><title>Корона на подушке среди холмов</title><defs><linearGradient id="sky92" x1="0" y1="0" x2="0" y2="1">
    <stop offset="0" stop-color="#BFE3F0"/><stop offset="1" stop-color="#8FCFE6"/>
  </linearGradient></defs>
  <rect width="1200" height="900" fill="url(#sky92)"/><defs><radialGradient id="glow93"><stop offset="0" stop-color="#FCE39A"/><stop offset="1" stop-color="#FCE39A" stop-opacity="0"/></radialGradient></defs>
  <circle cx="600" cy="200" r="260" fill="url(#glow93)"/>
  <path d="M0,760 Q300,660 600,710 T1200,690 V900 H0 Z" fill="#9FCF6E"/>
  <path d="M0,840 Q350,740 700,810 T1200,780 V900 H0 Z" fill="#5E9E5A"/><rect x="480" y="760" width="240" height="60" rx="18" fill="#EB8A73"/><g transform="translate(600,740) scale(1.4)">
    <path d="M-50,10 L-50,-10 L-25,-40 L0,-10 L25,-40 L50,-10 L50,10 Z" fill="#F2C94C"/>
    <rect x="-50" y="10" width="100" height="18" rx="6" fill="#F2C94C"/>
    <circle cx="-25" cy="-40" r="8" fill="#EB8A73"/>
    <circle cx="25" cy="-40" r="8" fill="#EB8A73"/>
    <circle cx="0" cy="-46" r="9" fill="#EB8A73"/></g></svg>