<svg xmlns="http://www.w3.org/2000/svg" viewBox="0 0 1200 900" preserveAspectRatio="xMidYMid meet" role="img"><title>Ребёнок с Библией, вдали — брошенная статуя</title><defs><linearGradient id="sky108" x1="0" y1="0" x2="0" y2="1">
    <stop offset="0" stop-color="#BFE3F0"/><stop offset="1" stop-color="#8FCFE6"/>
  </linearGradient></defs>
  <rect width="1200" height="900" fill="url(#sky108)"/><defs><radialGradient id="glow109"><stop offset="0" stop-color="#FCE39A"/><stop offset="1" stop-color="#FCE39A" stop-opacity="0"/></radialGradient></defs>
  <circle cx="600" cy="200" r="260" fill="url(#glow109)"/>
  <path d="M0,760 Q300,660 600,710 T1200,690 V900 H0 Z" fill="#9FCF6E"/>
  <path d="M0,840 Q350,740 700,810 T1200,780 V900 H0 Z" fill="#5E9E5A"/><g transform="translate(980,820) scale(1)">
    <rect x="-50" y="-16" width="70" height="32" rx="6" fill="#E9CE8E" stroke="#A0653A" stroke-width="4" transform="rotate(8)"/>
    <rect x="20" y="-30" width="24" height="24" rx="4" fill="#E9CE8E" stroke="#A0653A" stroke-width="4" transform="rotate(-10 32 -18)"/></g><g transform="translate(420,800) scale(1.2)">
    <path d="M-30,-60 Q0,-78 30,-60 L26,20 Q0,32 -26,20 Z" fill="#F2C94C"/>
       <rect x="-24" y="16" width="18" height="46" rx="8" fill="#3D5A80"/>
       <rect x="6" y="16" width="18" height="46" rx="8" fill="#3D5A80"/>
    <path d="M-26,-56 L-34,-16" stroke="#F1C9A5" stroke-width="16" stroke-linecap="round"/>
         <path d="M26,-56 L34,-16" stroke="#F1C9A5" stroke-width="16" stroke-linecap="round"/>
    <circle cx="0" cy="-88" r="26" fill="#F1C9A5"/>
    <path d="M-26,-96 Q0,-124 26,-96 Q26,-108 0,-112 Q-26,-108 -26,-96 Z" fill="#A0653A"/></g><g transform="translate(420,730) scale(0.9)">
    <path d="M-70,-10 Q-35,-28 0,-10 L0,40 Q-35,24 -70,40 Z" fill="#F5FBFE" stroke="#E9CE8E" stroke-width="4"/>
    <path d="M70,-10 Q35,-28 0,-10 L0,40 Q35,24 70,40 Z" fill="#F5FBFE" stroke="#E9CE8E" stroke-width="4"/>
    <path d="M0,-10 L0,40" stroke="#E9CE8E" stroke-width="3"/></g></svg>