<svg xmlns="http://www.w3.org/2000/svg" viewBox="0 0 1200 900" preserveAspectRatio="xMidYMid meet" role="img"><title>Тихий двор для молитвы</title><defs><linearGradient id="sky110" x1="0" y1="0" x2="0" y2="1">
    <stop offset="0" stop-color="#BFE3F0"/><stop offset="1" stop-color="#8FCFE6"/>
  </linearGradient></defs>
  <rect width="1200" height="900" fill="url(#sky110)"/><defs><radialGradient id="glow111"><stop offset="0" stop-color="#FCE39A"/><stop offset="1" stop-color="#FCE39A" stop-opacity="0"/></radialGradient></defs>
  <circle cx="600" cy="200" r="260" fill="url(#glow111)"/>
  <path d="M0,780 Q300,680 600,730 T1200,710 V900 H0 Z" fill="#9FCF6E"/>
  <path d="M0,860 Q350,760 700,830 T1200,800 V900 H0 Z" fill="#5E9E5A"/><g transform="translate(600,800) scale(1.4)">
    <path d="M-28,-40 Q0,-20 28,-40 L24,10 Q0,20 -24,10 Z" fill="#F2C94C"/>
       <path d="M-24,10 L-30,30 L30,30 L24,10 Z" fill="#3D5A80"/>
    <path d="M-26,-56 L-34,-16" stroke="#F1C9A5" stroke-width="16" stroke-linecap="round"/>
         <path d="M26,-56 L34,-16" stroke="#F1C9A5" stroke-width="16" stroke-linecap="round"/>
    <circle cx="0" cy="-88" r="26" fill="#F1C9A5"/>
    <path d="M-26,-96 Q0,-124 26,-96 Q26,-108 0,-112 Q-26,-108 -26,-96 Z" fill="#A0653A"/></g></svg>