<svg xmlns="http://www.w3.org/2000/svg" viewBox="0 0 1200 900" preserveAspectRatio="xMidYMid meet" role="img"><title>Каменные скрижали с трещиной на фоне спокойного пейзажа.</title><defs><linearGradient id="q89sky1" x1="0" y1="0" x2="0" y2="1"><stop offset="0" stop-color="#BFE3F0"/><stop offset="1" stop-color="#8FCFE6"/></linearGradient></defs><rect width="1200" height="900" fill="url(#q89sky1)"/><path d="M0,600 Q300,380 600,523 T1200,501 V900 H0 Z" fill="#A9C5A0"/><path d="M0,760 Q300,640 600,718 T1200,706 V900 H0 Z" fill="#5E9E5A"/><path d="M0,850 Q300,810 600,836 T1200,832 V900 H0 Z" fill="#A9C5A0"/><g transform="translate(284,171) scale(1.0899999999999999)" opacity="0.95"><ellipse cx="-30" cy="0" rx="34" ry="20" fill="#FFFFFF"/><ellipse cx="10" cy="-8" rx="42" ry="26" fill="#FFFFFF"/><ellipse cx="46" cy="2" rx="30" ry="18" fill="#FFFFFF"/></g><g transform="translate(768,155) scale(0.9500000000000001)" opacity="0.95"><ellipse cx="-30" cy="0" rx="34" ry="20" fill="#FFFFFF"/><ellipse cx="10" cy="-8" rx="42" ry="26" fill="#FFFFFF"/><ellipse cx="46" cy="2" rx="30" ry="18" fill="#FFFFFF"/></g><g transform="translate(172,890) scale(1.1)">
    <path d="M-10,4 Q-14,-16 -6,-26" stroke="#5E9E5A" stroke-width="4" fill="none" stroke-linecap="round"/>
    <path d="M0,4 Q0,-22 4,-30" stroke="#5E9E5A" stroke-width="4" fill="none" stroke-linecap="round"/>
    <path d="M10,4 Q14,-14 8,-24" stroke="#5E9E5A" stroke-width="4" fill="none" stroke-linecap="round"/>
  </g><g transform="translate(979,888) scale(1.2)">
    <path d="M-10,4 Q-14,-16 -6,-26" stroke="#5E9E5A" stroke-width="4" fill="none" stroke-linecap="round"/>
    <path d="M0,4 Q0,-22 4,-30" stroke="#5E9E5A" stroke-width="4" fill="none" stroke-linecap="round"/>
    <path d="M10,4 Q14,-14 8,-24" stroke="#5E9E5A" stroke-width="4" fill="none" stroke-linecap="round"/>
  </g><g transform="translate(600,650) scale(1.3)">
    <ellipse cx="0" cy="4" rx="30" ry="9.6" fill="#5E9E5A" opacity="0.22"/>
    <path d="M-46,10 L-46,-46 Q-46,-64 -28,-64 L-8,-64 Q0,-78 8,-64 L28,-64 Q46,-64 46,-46 L46,10 Z" fill="#F5FBFE" stroke="#A9C5A0" stroke-width="3"/>
    <path d="M-6,-70 L6,-30 L-4,10" stroke="#A9C5A0" stroke-width="4" fill="none" stroke-linecap="round"/>
  </g></svg>