<svg xmlns="http://www.w3.org/2000/svg" viewBox="0 0 1200 900" preserveAspectRatio="xMidYMid meet" role="img"><title>Библия и корона рядом</title><defs><linearGradient id="sky143" x1="0" y1="0" x2="0" y2="1">
    <stop offset="0" stop-color="#BFE3F0"/><stop offset="1" stop-color="#8FCFE6"/>
  </linearGradient></defs>
  <rect width="1200" height="900" fill="url(#sky143)"/><defs><radialGradient id="glow144"><stop offset="0" stop-color="#FCE39A"/><stop offset="1" stop-color="#FCE39A" stop-opacity="0"/></radialGradient></defs>
  <circle cx="600" cy="200" r="260" fill="url(#glow144)"/>
  <path d="M0,780 Q300,680 600,730 T1200,710 V900 H0 Z" fill="#9FCF6E"/>
  <path d="M0,860 Q350,760 700,830 T1200,800 V900 H0 Z" fill="#5E9E5A"/><g transform="translate(480,760) scale(1.3)">
    <path d="M-70,-10 Q-35,-28 0,-10 L0,40 Q-35,24 -70,40 Z" fill="#F5FBFE" stroke="#E9CE8E" stroke-width="4"/>
    <path d="M70,-10 Q35,-28 0,-10 L0,40 Q35,24 70,40 Z" fill="#F5FBFE" stroke="#E9CE8E" stroke-width="4"/>
    <path d="M0,-10 L0,40" stroke="#E9CE8E" stroke-width="3"/></g><g transform="translate(760,750) scale(1)">
    <path d="M-50,10 L-50,-10 L-25,-40 L0,-10 L25,-40 L50,-10 L50,10 Z" fill="#F2C94C"/>
    <rect x="-50" y="10" width="100" height="18" rx="6" fill="#F2C94C"/>
    <circle cx="-25" cy="-40" r="8" fill="#EB8A73"/>
    <circle cx="25" cy="-40" r="8" fill="#EB8A73"/>
    <circle cx="0" cy="-46" r="9" fill="#EB8A73"/></g></svg>