<svg xmlns="http://www.w3.org/2000/svg" viewBox="0 0 1200 900" preserveAspectRatio="xMidYMid meet" role="img"><title>Тяжёлые закрытые ворота на фоне тёмного неба вдалеке.</title><defs><linearGradient id="q91sky1" x1="0" y1="0" x2="0" y2="1"><stop offset="0" stop-color="#8FCFE6"/><stop offset="1" stop-color="#3D5A80"/></linearGradient><radialGradient id="q91glow2"><stop offset="0" stop-color="#FCE39A"/><stop offset="1" stop-color="#FCE39A" stop-opacity="0"/></radialGradient></defs><rect width="1200" height="900" fill="url(#q91sky1)"/><path d="M0,740 Q300,690 600,722.5 T1200,717.5 V900 H0 Z" fill="#7FB4B0"/><path d="M0,800 Q300,760 600,786 T1200,782 V900 H0 Z" fill="#3D5A80"/><path transform="translate(300,197) scale(0.7000000000000001)" d="M0,-20 L5,-6 L20,0 L5,6 L0,20 L-5,6 L-20,0 L-5,-6 Z" fill="#FCE39A"/><path transform="translate(874,221) scale(0.7)" d="M0,-20 L5,-6 L20,0 L5,6 L0,20 L-5,6 L-20,0 L-5,-6 Z" fill="#FCE39A"/><circle cx="950" cy="500" r="220" fill="url(#q91glow2)"/><g transform="translate(500,760) scale(1.3)" opacity="0.92">
    <ellipse cx="0" cy="4" rx="56" ry="17.92" fill="#5E9E5A" opacity="0.22"/>
    <path d="M-60,10 L-60,-60 Q0,-112 60,-60 L60,10 Z" fill="#3D5A80"/>
    <rect x="-48" y="-14" width="44" height="76" rx="4" fill="#3D5A80"/>
    <rect x="4" y="-14" width="44" height="76" rx="4" fill="#3D5A80"/>
  </g></svg>