<svg xmlns="http://www.w3.org/2000/svg" viewBox="0 0 1200 900" preserveAspectRatio="xMidYMid meet" role="img"><title>Ребёнок протягивает раскрытые ладони к свету, льющемуся с небес.</title><defs><linearGradient id="q93sky1" x1="0" y1="0" x2="0" y2="1"><stop offset="0" stop-color="#FCE39A"/><stop offset="1" stop-color="#F2C94C"/></linearGradient><radialGradient id="q93glow2"><stop offset="0" stop-color="#FCE39A"/><stop offset="1" stop-color="#FCE39A" stop-opacity="0"/></radialGradient></defs><rect width="1200" height="900" fill="url(#q93sky1)"/><path d="M0,700 Q300,610 600,668.5 T1200,659.5 V900 H0 Z" fill="#E9CE8E"/><path d="M0,780 Q300,690 600,748.5 T1200,739.5 V900 H0 Z" fill="#5E9E5A"/><path d="M0,850 Q300,810 600,836 T1200,832 V900 H0 Z" fill="#A9C5A0"/><g transform="translate(256,173) scale(0.85)" opacity="0.95"><ellipse cx="-30" cy="0" rx="34" ry="20" fill="#FFFFFF"/><ellipse cx="10" cy="-8" rx="42" ry="26" fill="#FFFFFF"/><ellipse cx="46" cy="2" rx="30" ry="18" fill="#FFFFFF"/></g><g transform="translate(980,187) scale(0.9500000000000001)" opacity="0.95"><ellipse cx="-30" cy="0" rx="34" ry="20" fill="#FFFFFF"/><ellipse cx="10" cy="-8" rx="42" ry="26" fill="#FFFFFF"/><ellipse cx="46" cy="2" rx="30" ry="18" fill="#FFFFFF"/></g><g transform="translate(204,890) scale(1.1)">
    <path d="M-10,4 Q-14,-16 -6,-26" stroke="#5E9E5A" stroke-width="4" fill="none" stroke-linecap="round"/>
    <path d="M0,4 Q0,-22 4,-30" stroke="#5E9E5A" stroke-width="4" fill="none" stroke-linecap="round"/>
    <path d="M10,4 Q14,-14 8,-24" stroke="#5E9E5A" stroke-width="4" fill="none" stroke-linecap="round"/>
  </g><g transform="translate(991,888) scale(0.9)">
    <path d="M-10,4 Q-14,-16 -6,-26" stroke="#5E9E5A" stroke-width="4" fill="none" stroke-linecap="round"/>
    <path d="M0,4 Q0,-22 4,-30" stroke="#5E9E5A" stroke-width="4" fill="none" stroke-linecap="round"/>
    <path d="M10,4 Q14,-14 8,-24" stroke="#5E9E5A" stroke-width="4" fill="none" stroke-linecap="round"/>
  </g><circle cx="600" cy="220" r="260" fill="url(#q93glow2)"/><g transform="translate(600,800) scale(1.5)">
    <ellipse cx="0" cy="4" rx="28" ry="8.96" fill="#5E9E5A" opacity="0.22"/>
    <path d="M-22,-56 Q0,-70 22,-56 L18,10 Q0,20 -18,10 Z" fill="#EB8A73"/>
    <rect x="-16" y="8" width="14" height="36" rx="7" fill="#3D5A80"/>
    <rect x="2" y="8" width="14" height="36" rx="7" fill="#3D5A80"/>
    <path d="M-18,-50 L-36,-84" stroke="#F1C9A5" stroke-width="12" stroke-linecap="round"/>
    <path d="M18,-50 L36,-84" stroke="#F1C9A5" stroke-width="12" stroke-linecap="round"/>
    <circle cx="0" cy="-80" r="22" fill="#F1C9A5"/>
    <path d="M-21,-86 Q0,-104 21,-86 Q21,-95 0,-97 Q-21,-95 -21,-86 Z" fill="#A0653A"/>
  </g></svg>