<svg xmlns="http://www.w3.org/2000/svg" viewBox="0 0 1200 900" preserveAspectRatio="xMidYMid meet" role="img"><title>Ребёнок читает Библию у окна</title><rect width="1200" height="900" fill="#F5FBFE"/><rect x="820" y="120" width="300" height="380" rx="16" fill="#BFE3F0" stroke="#E9CE8E" stroke-width="16"/><defs><radialGradient id="glow152"><stop offset="0" stop-color="#FCE39A"/><stop offset="1" stop-color="#FCE39A" stop-opacity="0"/></radialGradient></defs>
  <circle cx="970" cy="260" r="160" fill="url(#glow152)"/><rect x="380" y="620" width="360" height="24" fill="#8B5A2B"/><g transform="translate(560,600) scale(1.3)">
    <path d="M-70,-10 Q-35,-28 0,-10 L0,40 Q-35,24 -70,40 Z" fill="#F5FBFE" stroke="#E9CE8E" stroke-width="4"/>
    <path d="M70,-10 Q35,-28 0,-10 L0,40 Q35,24 70,40 Z" fill="#F5FBFE" stroke="#E9CE8E" stroke-width="4"/>
    <path d="M0,-10 L0,40" stroke="#E9CE8E" stroke-width="3"/></g><g transform="translate(400,700) scale(1.1)">
    <path d="M-28,-40 Q0,-20 28,-40 L24,10 Q0,20 -24,10 Z" fill="#F2C94C"/>
       <path d="M-24,10 L-30,30 L30,30 L24,10 Z" fill="#3D5A80"/>
    <path d="M-26,-56 L-34,-16" stroke="#F1C9A5" stroke-width="16" stroke-linecap="round"/>
         <path d="M26,-56 L34,-16" stroke="#F1C9A5" stroke-width="16" stroke-linecap="round"/>
    <circle cx="0" cy="-88" r="26" fill="#F1C9A5"/>
    <path d="M-26,-96 Q0,-124 26,-96 Q26,-108 0,-112 Q-26,-108 -26,-96 Z" fill="#A0653A"/></g></svg>