<svg xmlns="http://www.w3.org/2000/svg" viewBox="0 0 1200 900" preserveAspectRatio="xMidYMid meet" role="img"><title>Вода и хлеб с чашей на столе</title><defs><linearGradient id="sky153" x1="0" y1="0" x2="0" y2="1">
    <stop offset="0" stop-color="#BFE3F0"/><stop offset="1" stop-color="#8FCFE6"/>
  </linearGradient></defs>
  <rect width="1200" height="900" fill="url(#sky153)"/><defs><radialGradient id="glow154"><stop offset="0" stop-color="#FCE39A"/><stop offset="1" stop-color="#FCE39A" stop-opacity="0"/></radialGradient></defs>
  <circle cx="600" cy="200" r="260" fill="url(#glow154)"/>
  <path d="M0,800 Q300,700 600,750 T1200,730 V900 H0 Z" fill="#9FCF6E"/>
  <path d="M0,880 Q350,780 700,850 T1200,820 V900 H0 Z" fill="#5E9E5A"/><g transform="translate(360,800) scale(0.9)">
    <path d="M-120,0 Q-60,-24 0,0 T120,0 L120,40 Q60,64 0,40 T-120,40 Z" fill="#7FB4B0"/>
    <path d="M-120,10 Q-60,-14 0,10 T120,10" fill="none" stroke="#BFE3F0" stroke-width="6" opacity="0.7"/></g><g transform="translate(820,800) scale(1)">
    <rect x="-90" y="20" width="180" height="10" fill="#E9CE8E"/>
    <ellipse cx="-45" cy="10" rx="42" ry="24" fill="#A0653A"/>
    <ellipse cx="-45" cy="2" rx="36" ry="18" fill="#E9CE8E"/>
    <path d="M40,20 L34,-24 Q34,-40 54,-40 Q74,-40 74,-24 L68,20 Z" fill="#7FB4B0"/>
    <rect x="48" y="20" width="12" height="16" fill="#7FB4B0"/></g></svg>