<svg xmlns="http://www.w3.org/2000/svg" viewBox="0 0 1200 900" preserveAspectRatio="xMidYMid meet" role="img"><title>Ребёнок молится у кровати вечером</title><defs><linearGradient id="sky160" x1="0" y1="0" x2="0" y2="1">
    <stop offset="0" stop-color="#FCE39A"/><stop offset="1" stop-color="#F2C94C"/>
  </linearGradient></defs>
  <rect width="1200" height="900" fill="url(#sky160)"/><circle cx="140" cy="90" r="4" fill="#FFFFFF" opacity="0.85"/><circle cx="260" cy="60" r="4" fill="#FFFFFF" opacity="0.85"/><circle cx="420" cy="120" r="4" fill="#FFFFFF" opacity="0.85"/><circle cx="600" cy="70" r="4" fill="#FFFFFF" opacity="0.85"/><circle cx="780" cy="110" r="4" fill="#FFFFFF" opacity="0.85"/><circle cx="940" cy="60" r="4" fill="#FFFFFF" opacity="0.85"/><circle cx="1080" cy="100" r="4" fill="#FFFFFF" opacity="0.85"/><circle cx="200" cy="180" r="4" fill="#FFFFFF" opacity="0.85"/><circle cx="980" cy="200" r="4" fill="#FFFFFF" opacity="0.85"/><circle cx="520" cy="160" r="4" fill="#FFFFFF" opacity="0.85"/>
  <path d="M0,820 Q300,720 600,770 T1200,750 V900 H0 Z" fill="#9FCF6E"/>
  <path d="M0,900 Q350,800 700,870 T1200,840 V900 H0 Z" fill="#5E9E5A"/><g transform="translate(600,820) scale(1.4)">
    <path d="M-30,-60 Q0,-78 30,-60 L26,20 Q0,32 -26,20 Z" fill="#F2C94C"/>
       <rect x="-24" y="16" width="18" height="46" rx="8" fill="#3D5A80"/>
       <rect x="6" y="16" width="18" height="46" rx="8" fill="#3D5A80"/>
    <path d="M-14,-50 L0,-78 L14,-50" fill="none" stroke="#F1C9A5" stroke-width="16" stroke-linecap="round"/>
    <circle cx="0" cy="-88" r="26" fill="#F1C9A5"/>
    <path d="M-26,-96 Q0,-124 26,-96 Q26,-108 0,-112 Q-26,-108 -26,-96 Z" fill="#A0653A"/></g></svg>