<svg xmlns="http://www.w3.org/2000/svg" viewBox="0 0 1200 900" preserveAspectRatio="xMidYMid meet" role="img"><title>Пустая гробница с отваленным камнем у входа, мягкий свет изнутри.</title><defs><linearGradient id="q106sky1" x1="0" y1="0" x2="0" y2="1"><stop offset="0" stop-color="#FCE39A"/><stop offset="1" stop-color="#F2C94C"/></linearGradient></defs><rect width="1200" height="900" fill="url(#q106sky1)"/><path d="M0,700 Q300,610 600,668.5 T1200,659.5 V900 H0 Z" fill="#E9CE8E"/><path d="M0,780 Q300,690 600,748.5 T1200,739.5 V900 H0 Z" fill="#5E9E5A"/><path d="M0,850 Q300,810 600,836 T1200,832 V900 H0 Z" fill="#A9C5A0"/><g transform="translate(225,162) scale(0.97)" opacity="0.95"><ellipse cx="-30" cy="0" rx="34" ry="20" fill="#FFFFFF"/><ellipse cx="10" cy="-8" rx="42" ry="26" fill="#FFFFFF"/><ellipse cx="46" cy="2" rx="30" ry="18" fill="#FFFFFF"/></g><g transform="translate(829,156) scale(0.8)" opacity="0.95"><ellipse cx="-30" cy="0" rx="34" ry="20" fill="#FFFFFF"/><ellipse cx="10" cy="-8" rx="42" ry="26" fill="#FFFFFF"/><ellipse cx="46" cy="2" rx="30" ry="18" fill="#FFFFFF"/></g><g transform="translate(173,890) scale(0.9)">
    <path d="M-10,4 Q-14,-16 -6,-26" stroke="#5E9E5A" stroke-width="4" fill="none" stroke-linecap="round"/>
    <path d="M0,4 Q0,-22 4,-30" stroke="#5E9E5A" stroke-width="4" fill="none" stroke-linecap="round"/>
    <path d="M10,4 Q14,-14 8,-24" stroke="#5E9E5A" stroke-width="4" fill="none" stroke-linecap="round"/>
  </g><g transform="translate(1080,888) scale(1.05)">
    <path d="M-10,4 Q-14,-16 -6,-26" stroke="#5E9E5A" stroke-width="4" fill="none" stroke-linecap="round"/>
    <path d="M0,4 Q0,-22 4,-30" stroke="#5E9E5A" stroke-width="4" fill="none" stroke-linecap="round"/>
    <path d="M10,4 Q14,-14 8,-24" stroke="#5E9E5A" stroke-width="4" fill="none" stroke-linecap="round"/>
  </g><g transform="translate(560,780) scale(1.2)">
    <path d="M-70,0 L-70,-70 Q0,-140 70,-70 L70,0 Z" fill="#8B5A2B"/>
    <path d="M-46,0 L-46,-56 Q0,-104 46,-56 L46,0 Z" fill="#FCE39A" opacity="0.85"/>
    <circle cx="94" cy="-18" r="34" fill="#E9CE8E"/>
  </g></svg>